<svg id="Layer_3" enable-background="new 0 0 64 64" height="512" viewBox="0 0 64 64" width="512" xmlns="http://www.w3.org/2000/svg"><path d="m52.479 40.095-.211-.563c-2.251-6.003-6.228-11.105-11.498-14.754-2.914-2.017-5.181-4.906-6.481-8.198.457-.816.711-1.741.711-2.703 0-.988-.278-1.926-.761-2.759 1.14-1.393 1.761-3.122 1.761-4.947v-4.171c0-.421-.264-.797-.659-.94-.396-.142-.839-.023-1.109.3l-4.701 5.64h-5.062l-4.7-5.64c-.271-.324-.714-.442-1.109-.3-.396.143-.66.519-.66.94v4.171c0 1.824.621 3.553 1.761 4.947-.483.833-.761 1.771-.761 2.759 0 1.642.722 3.187 1.98 4.24l-.103.922c-.587 5.285.048 10.726 1.837 15.734 1.509 4.225 2.141 8.64 1.878 13.123l-.535 9.104h-3.242c.113-.314.185-.648.185-1 0-1.654-1.346-3-3-3h-4c-2.757 0-5 2.243-5 5s2.243 5 5 5h32c4.963 0 9-4.038 9-9 0-4.764-.849-9.442-2.521-13.905zm-32.479-35.333 3.231 3.878c.191.228.472.36.769.36h6c.297 0 .578-.132.769-.36l3.231-3.878v1.409c0 1.217-.376 2.375-1.064 3.35l-.229-.229-1.414 1.415.673.672c.667.668 1.034 1.555 1.034 2.498 0 1.051-.463 2.04-1.271 2.713l-3.6 3c-.633.527-1.626.527-2.257 0l-3.602-3.001c-.807-.672-1.27-1.66-1.27-2.712 0-.943.367-1.831 1.034-2.498l.673-.672-1.414-1.415-.229.229c-.688-.974-1.064-2.132-1.064-3.35zm26 56.238h-32c-1.654 0-3-1.346-3-3s1.346-3 3-3h4c.552 0 1 .449 1 1s-.448 1-1 1h-1-4v2h4 1 14.456c1.63 0 3.251-.091 4.861-.254l.128.086.072-.108c4.039-.426 8.003-1.351 11.834-2.787l-.703-1.873c-3.509 1.316-7.136 2.183-10.829 2.614l-.689-.459c-2.586-1.724-4.13-4.61-4.13-7.719s1.544-5.995 4.131-7.719l1.424-.949-1.109-1.664-1.424.949c-1.845 1.23-3.238 2.953-4.087 4.925l2.056-14.906-1.98-.273-3.882 28.137h-2.069l.529-8.985c.279-4.752-.391-9.434-1.991-13.913-1.641-4.597-2.244-9.58-1.764-14.439l1.759 1.466c.675.561 1.529.871 2.407.871s1.732-.31 2.409-.872l3.427-2.857c1.489 3.258 3.843 6.109 6.794 8.152 4.935 3.416 8.656 8.192 10.764 13.812l.211.563c1.589 4.236 2.395 8.679 2.395 13.202 0 3.86-3.141 7-7 7zm-14.891-10.977c.363 2.676 1.671 5.124 3.694 6.913-.78.039-1.562.064-2.347.064h-2.309z"/></svg>